<svg width="21" height="21" viewBox="0 0 21 21" fill="none" xmlns="http://www.w3.org/2000/svg">
<path d="M13.125 18.375V11.375C13.125 11.1429 13.0328 10.9204 12.8687 10.7563C12.7046 10.5922 12.4821 10.5 12.25 10.5H8.75C8.51794 10.5 8.29538 10.5922 8.13128 10.7563C7.96719 10.9204 7.875 11.1429 7.875 11.375V18.375" stroke="white" stroke-width="1.66624" stroke-linecap="round" stroke-linejoin="round"/>
<path d="M2.625 8.74999C2.62494 8.49543 2.68042 8.24391 2.78756 8.013C2.89471 7.78208 3.05095 7.57732 3.24538 7.41299L9.37038 2.16299C9.68624 1.89604 10.0864 1.74957 10.5 1.74957C10.9136 1.74957 11.3138 1.89604 11.6296 2.16299L17.7546 7.41299C17.9491 7.57732 18.1053 7.78208 18.2124 8.013C18.3196 8.24391 18.3751 8.49543 18.375 8.74999V16.625C18.375 17.0891 18.1906 17.5342 17.8624 17.8624C17.5342 18.1906 17.0891 18.375 16.625 18.375H4.375C3.91087 18.375 3.46575 18.1906 3.13756 17.8624C2.80937 17.5342 2.625 17.0891 2.625 16.625V8.74999Z" stroke="white" stroke-width="1.66624" stroke-linecap="round" stroke-linejoin="round"/>
</svg>
