<svg width="16" height="16" viewBox="0 0 16 16" fill="none" xmlns="http://www.w3.org/2000/svg">
<path d="M13.3209 6.66046C13.3209 9.98603 9.6317 13.4495 8.39285 14.5191C8.27744 14.6059 8.13695 14.6529 7.99256 14.6529C7.84816 14.6529 7.70767 14.6059 7.59226 14.5191C6.35342 13.4495 2.66418 9.98603 2.66418 6.66046C2.66418 5.24729 3.22556 3.892 4.22483 2.89274C5.22409 1.89347 6.57938 1.33209 7.99256 1.33209C9.40573 1.33209 10.761 1.89347 11.7603 2.89274C12.7595 3.892 13.3209 5.24729 13.3209 6.66046Z" stroke="#FF00D6" stroke-width="1.33209" stroke-linecap="round" stroke-linejoin="round"/>
<path d="M7.99255 8.65857C9.0961 8.65857 9.99069 7.76397 9.99069 6.66043C9.99069 5.55689 9.0961 4.66229 7.99255 4.66229C6.88901 4.66229 5.99442 5.55689 5.99442 6.66043C5.99442 7.76397 6.88901 8.65857 7.99255 8.65857Z" stroke="#FF00D6" stroke-width="1.33209" stroke-linecap="round" stroke-linejoin="round"/>
</svg>
