<svg width="60" height="23" viewBox="0 0 60 23" fill="none" xmlns="http://www.w3.org/2000/svg">
<path d="M7.07643 23H6.06547V0H17.2558V0.999981H7.07643V1.99996H17.2558V3.00001H7.07643V3.99999H17.2558V4.99997H7.07643V10H16.7784V11H7.07643V12H16.7784V13H7.07643V14H16.7784V15H7.07643V23ZM5.05458 23H4.04366V0H5.05458V23ZM3.03275 23H2.02183V0H3.03275V23ZM1.01092 23H0V0H1.01092V23ZM19.2074 0.999981V0H34.3711V0.999981H19.2074ZM19.2074 3.00001V1.99996H34.3711V3.00001H19.2074ZM19.2074 4.99997V3.99999H34.3711V4.99997H30.3275V23H29.3166V4.99997H28.3056V23H27.2947V4.99997H26.2838V23H25.2729V4.99997H24.262V23H23.2511V4.99997H19.2074ZM43.7503 23H42.7393V0H53.9296V0.999981H43.7503V1.99996H53.9296V3.00001H43.7503V3.99999H53.9296V4.99997H43.7503V10H53.4522V11H43.7503V12H53.4522V13H43.7503V14H53.4522V15H43.7503V23ZM41.7284 23H40.7175V0H41.7284V23ZM39.7065 23H38.6956V0H39.7065V23ZM37.6847 23H36.6738V0H37.6847V23Z" fill="#1E58F9"/>
<path d="M13.1467 23H12.1358V0H23.3261V0.999981H13.1467V1.99996H23.3261V3.00001H13.1467V3.99999H23.3261V4.99997H13.1467V10H22.8487V11H13.1467V12H22.8487V13H13.1467V14H22.8487V15H13.1467V23ZM11.1249 23H10.114V0H11.1249V23ZM9.10306 23H8.09214V0H9.10306V23ZM7.08123 23H6.07031V0H7.08123V23ZM25.2778 0.999981V0H40.4415V0.999981H25.2778ZM25.2778 3.00001V1.99996H40.4415V3.00001H25.2778ZM25.2778 4.99997V3.99999H40.4415V4.99997H36.3978V23H35.3869V4.99997H34.376V23H33.3651V4.99997H32.3542V23H31.3432V4.99997H30.3323V23H29.3214V4.99997H25.2778ZM49.8206 23H48.8096V0H59.9999V0.999981H49.8206V1.99996H59.9999V3.00001H49.8206V3.99999H59.9999V4.99997H49.8206V10H59.5225V11H49.8206V12H59.5225V13H49.8206V14H59.5225V15H49.8206V23ZM47.7987 23H46.7878V0H47.7987V23ZM45.7768 23H44.766V0H45.7768V23ZM43.7551 23H42.7441V0H43.7551V23Z" fill="white"/>
</svg>
